Resolution.glyphspackage
{
glyphname = zero;
layers = (
{
layerId = m01;
shapes = (
{
closed = 1;
nodes = (
(15,50,l),
(65,50,l),
(65,0,l),
(615,0,l),
(615,550,l),
(565,550,l),
(565,600,l),
(15,600,l)
);
}
);
width = 630;
},
{
layerId = m002;
shapes = (
{
closed = 1;
nodes = (
(15,50,l),
(15,50,l),
(15,0,l),
(615,0,l),
(615,550,l),
(615,550,l),
(615,600,l),
(15,600,l)
);
}
);
width = 610;
}
);
unicode = 48;
}
{
glyphname = one;
layers = (
{
layerId = m01;
shapes = (
{
closed = 1;
nodes = (
(15,550,l),
(65,550,l),
(65,-2,l),
(415,0,l),
(415,600,l),
(15,600,l)
);
}
);
width = 430;
},
{
layerId = m002;
shapes = (
{
closed = 1;
nodes = (
(5,550,l),
(5,550,l),
(5,-2,l),
(605,0,l),
(605,600,l),
(5,600,l)
);
}
);
width = 610;
}
);
metricLeft = "=O";
metricRight = "=O";
unicode = 49;
}
{
glyphname = two;
layers = (
{
layerId = m01;
shapes = (
{
closed = 1;
nodes = (
(10,409,l),
(223,409,l),
(223,359,l),
(10,359,l),
(10,0,l),
(610,0,l),
(610,173,l),
(429,173,l),
(429,223,l),
(610,223,l),
(610,600,l),
(10,600,l)
);
}
);
userData = {
com.hugojourdan.ColorFlow = {
"0" = 0;
"1" = 0;
"10" = 0;
"11" = 0;
"2" = 0;
"3" = 0;
"4" = 0;
"5" = 0;
"6" = 0;
"7" = 0;
"8" = 0;
"9" = 0;
};
};
width = 630;
},
{
layerId = m002;
shapes = (
{
closed = 1;
nodes = (
(10,409,l),
(10,409,l),
(10,359,l),
(10,359,l),
(10,0,l),
(610,0,l),
(610,173,l),
(610,173,l),
(610,223,l),
(610,223,l),
(610,600,l),
(10,600,l)
);
}
);
userData = {
com.hugojourdan.ColorFlow = {
"0" = 0;
"1" = 0;
"10" = 0;
"11" = 0;
"2" = 0;
"3" = 0;
"4" = 0;
"5" = 0;
"6" = 0;
"7" = 0;
"8" = 0;
"9" = 0;
};
};
width = 610;
}
);
unicode = 50;
}
{
glyphname = three;
layers = (
{
layerId = m01;
shapes = (
{
closed = 1;
nodes = (
(15,423,l),
(289,423,l),
(290,373,l),
(15,373,l),
(15,206,l),
(290,206,l),
(290,156,l),
(15,156,l),
(15,0,l),
(615,0,l),
(615,600,l),
(15,600,l)
);
}
);
width = 630;
},
{
layerId = m002;
shapes = (
{
closed = 1;
nodes = (
(15,423,l),
(15,423,l),
(15,373,l),
(15,373,l),
(15,206,l),
(15,206,l),
(15,156,l),
(15,156,l),
(15,0,l),
(615,0,l),
(615,600,l),
(15,600,l)
);
}
);
width = 610;
}
);
unicode = 51;
}
{
glyphname = four;
layers = (
{
layerId = m01;
shapes = (
{
closed = 1;
nodes = (
(15,100,l),
(259,100,l),
(259,0,l),
(259,0,l),
(615,0,l),
(615,600,l),
(338,600,l),
(338,406,l),
(288,406,l),
(288,600,l),
(15,600,l)
);
}
);
width = 630;
},
{
layerId = m002;
shapes = (
{
closed = 1;
nodes = (
(15,100,l),
(15,100,l),
(15,0,l),
(15,0,l),
(615,0,l),
(615,600,l),
(338,600,l),
(338,600,l),
(288,600,l),
(288,600,l),
(15,600,l)
);
}
);
width = 610;
}
);
unicode = 52;
}
{
glyphname = five;
layers = (
{
layerId = m01;
shapes = (
{
closed = 1;
nodes = (
(10,209,l),
(223,209,l),
(223,159,l),
(10,159,l),
(10,0,l),
(610,0,l),
(610,373,l),
(429,373,l),
(429,423,l),
(610,423,l),
(610,600,l),
(10,600,l)
);
}
);
width = 630;
},
{
layerId = m002;
shapes = (
{
closed = 1;
nodes = (
(10,209,l),
(10,209,l),
(10,159,l),
(10,159,l),
(10,0,l),
(610,0,l),
(610,373,l),
(610,373,l),
(610,423,l),
(610,423,l),
(610,600,l),
(10,600,l)
);
}
);
width = 610;
}
);
unicode = 53;
}
{
glyphname = six;
layers = (
{
layerId = m01;
shapes = (
{
closed = 1;
nodes = (
(15,0,l),
(615,0,l),
(615,452,l),
(215,452,l),
(215,600,l),
(15,600,l)
);
}
);
width = 630;
},
{
layerId = m002;
shapes = (
{
closed = 1;
nodes = (
(5,0,l),
(605,0,l),
(605,452,l),
(605,452,l),
(605,600,l),
(5,600,l)
);
}
);
width = 610;
}
);
metricLeft = "=O";
metricRight = "=O";
unicode = 54;
}
{
glyphname = seven;
layers = (
{
layerId = m01;
shapes = (
{
closed = 1;
nodes = (
(15,466,l),
(264,466,l),
(264,0,l),
(615,0,l),
(615,600,l),
(15,600,l)
);
}
);
width = 630;
},
{
layerId = m002;
shapes = (
{
closed = 1;
nodes = (
(15,466,l),
(15,466,l),
(15,0,l),
(615,0,l),
(615,600,l),
(15,600,l)
);
}
);
width = 610;
}
);
unicode = 55;
}
{
glyphname = eight;
layers = (
{
layerId = m01;
shapes = (
{
closed = 1;
nodes = (
(115,377,l),
(15,377,l),
(15,0,l),
(615,0,l),
(615,377,l),
(515,377,l),
(515,600,l),
(115,600,l)
);
}
);
userData = {
com.hugojourdan.ColorFlow = {
"0" = 0;
"1" = 0;
"10" = 0;
"11" = 0;
"2" = 0;
"3" = 0;
"4" = 0;
"5" = 0;
"6" = 0;
"7" = 0;
"8" = 0;
"9" = 0;
};
};
width = 630;
},
{
layerId = m002;
shapes = (
{
closed = 1;
nodes = (
(15,337,l),
(15,337,l),
(15,0,l),
(615,0,l),
(615,337,l),
(615,337,l),
(615,600,l),
(15,600,l)
);
}
);
userData = {
com.hugojourdan.ColorFlow = {
"0" = 0;
"1" = 0;
"10" = 0;
"11" = 0;
"2" = 0;
"3" = 0;
"4" = 0;
"5" = 0;
"6" = 0;
"7" = 0;
"8" = 0;
"9" = 0;
};
};
width = 610;
}
);
unicode = 56;
}
{
glyphname = nine;
layers = (
{
layerId = m01;
shapes = (
{
closed = 1;
nodes = (
(15,136,l),
(364,136,l),
(364,0,l),
(615,0,l),
(615,600,l),
(15,600,l)
);
}
);
width = 630;
},
{
layerId = m002;
shapes = (
{
closed = 1;
nodes = (
(5,136,l),
(5,136,l),
(5,0,l),
(605,0,l),
(605,600,l),
(5,600,l)
);
}
);
width = 610;
}
);
metricLeft = "=O";
metricRight = "=O";
unicode = 57;
}
{
color = 4;
glyphname = A;
layers = (
{
layerId = m01;
shapes = (
{
closed = 1;
nodes = (
(19,100,l),
(115,100,l),
(115,0,l),
(115,0,l),
(620,0,l),
(620,600,l),
(254,600,l),
(254,500,l),
(15,500,l),
(15,400,l)
);
}
);
width = 635;
},
{
layerId = m002;
shapes = (
{
closed = 1;
nodes = (
(10,100,l),
(10,100,l),
(10,0,l),
(10,0,l),
(611,0,l),
(611,600,l),
(5,600,l),
(5,500,l),
(6,500,l),
(6,400,l)
);
}
);
width = 616;
},
{
associatedMasterId = m01;
layerId = "C12C38B3-79E1-46F8-BE33-2DB7424998B6";
name = "9. May 23, 21:56";
shapes = (
{
closed = 1;
nodes = (
(4,100,l),
(100,100,l),
(100,0,l),
(100,0,l),
(605,0,l),
(605,600,l),
(200,600,l),
(0,400,l)
);
}
);
width = 610;
}
);
metricLeft = "=O";
metricRight = "=O";
unicode = (65,97);
}
{
color = 4;
glyphname = B;
layers = (
{
layerId = m01;
shapes = (
{
closed = 1;
nodes = (
(25,0,l),
(625,0,l),
(625,300,l),
(421,300,l),
(421,350,l),
(569,350,l),
(570,600,l),
(25,600,l)
);
}
);
userData = {
com.hugojourdan.ColorFlow = {
"0" = 0;
"1" = 0;
"10" = 0;
"11" = 0;
"2" = 0;
"3" = 0;
"4" = 0;
"5" = 0;
"6" = 0;
"7" = 0;
"8" = 0;
"9" = 0;
};
};
width = 650;
},
{
layerId = m002;
shapes = (
{
closed = 1;
nodes = (
(25,0,l),
(625,0,l),
(625,300,l),
(625,300,l),
(625,350,l),
(625,350,l),
(626,600,l),
(25,600,l)
);
}
);
userData = {
com.hugojourdan.ColorFlow = {
"0" = 0;
"1" = 0;
"10" = 0;
"11" = 0;
"2" = 0;
"3" = 0;
"4" = 0;
"5" = 0;
"6" = 0;
"7" = 0;
"8" = 0;
"9" = 0;
};
};
width = 651;
}
);
metricLeft = "=O";
metricRight = "=O";
unicode = (66,98);
}
{
color = 4;
glyphname = C;
layers = (
{
layerId = m01;
shapes = (
{
closed = 1;
nodes = (
(15,100,l),
(115,100,l),
(115,0,l),
(615,0,l),
(615,273,l),
(465,273,l),
(465,330,l),
(615,330,l),
(615,600,l),
(115,600,l),
(115,500,l),
(15,500,l)
);
}
);
width = 630;
},
{
layerId = m002;
shapes = (
{
closed = 1;
nodes = (
(5,100,l),
(5,100,l),
(5,0,l),
(605,0,l),
(605,273,l),
(605,273,l),
(605,330,l),
(605,330,l),
(605,600,l),
(6,600,l),
(5,500,l),
(5,500,l)
);
}
);
width = 610;
}
);
metricLeft = "=O";
metricRight = "=O";
unicode = (67,99);
}
{
color = 4;
glyphname = D;
layers = (
{
layerId = m01;
shapes = (
{
closed = 1;
nodes = (
(25,0,l),
(520,0,l),
(520,100,l),
(625,100,l),
(625,500,l),
(520,500,l),
(520,600,l),
(25,600,l)
);
}
);
userData = {
com.hugojourdan.ColorFlow = {
"0" = 0;
"1" = 0;
"10" = 0;
"11" = 0;
"2" = 0;
"3" = 0;
"4" = 0;
"5" = 0;
"6" = 0;
"7" = 0;
"8" = 0;
"9" = 0;
};
};
width = 650;
},
{
layerId = m002;
shapes = (
{
closed = 1;
nodes = (
(25,0,l),
(625,0,l),
(625,100,l),
(625,100,l),
(625,500,l),
(625,500,l),
(625,600,l),
(25,600,l)
);
}
);
userData = {
com.hugojourdan.ColorFlow = {
"0" = 0;
"1" = 0;
"10" = 0;
"11" = 0;
"2" = 0;
"3" = 0;
"4" = 0;
"5" = 0;
"6" = 0;
"7" = 0;
"8" = 0;
"9" = 0;
};
};
width = 650;
},
{
associatedMasterId = m01;
layerId = "857C147E-1724-4039-A206-5EA324D860B7";
name = "9. May 23, 23:02";
shapes = (
{
closed = 1;
nodes = (
(5,0,l),
(500,0,l),
(605,100,l),
(605,500,l),
(500,600,l),
(5,600,l)
);
}
);
width = 610;
}
);
metricLeft = "=O";
metricRight = "=O";
unicode = (68,100);
}
{
color = 4;
glyphname = E;
layers = (
{
layerId = m01;
shapes = (
{
closed = 1;
nodes = (
(25,0,l),
(625,0,l),
(625,235,l),
(401,235,l),
(401,285,l),
(514,285,l),
(514,395,l),
(625,395,l),
(625,600,l),
(25,600,l)
);
}
);
userData = {
com.hugojourdan.ColorFlow = {
"0" = 0;
"1" = 0;
"10" = 0;
"11" = 0;
"2" = 0;
"3" = 0;
"4" = 0;
"5" = 0;
"6" = 0;
"7" = 0;
"8" = 0;
"9" = 0;
};
};
width = 650;
},
{
layerId = m002;
shapes = (
{
closed = 1;
nodes = (
(25,0,l),
(625,0,l),
(625,285,l),
(625,285,l),
(625,385,l),
(625,385,l),
(625,435,l),
(625,435,l),
(625,600,l),
(25,600,l)
);
}
);
userData = {
com.hugojourdan.ColorFlow = {
"0" = 0;
"1" = 0;
"10" = 0;
"11" = 0;
"2" = 0;
"3" = 0;
"4" = 0;
"5" = 0;
"6" = 0;
"7" = 0;
"8" = 0;
"9" = 0;
};
};
width = 650;
},
{
associatedMasterId = m01;
layerId = "80129AE5-2938-471B-8461-410BE07B0704";
name = "9. May 23, 22:32";
shapes = (
{
closed = 1;
nodes = (
(5,0,l),
(605,0,l),
(605,245,l),
(401,245,l),
(401,345,l),
(494,345,l),
(494,395,l),
(605,395,l),
(605,600,l),
(5,600,l)
);
}
);
width = 610;
}
);
metricLeft = "=O";
metricRight = "=O";
unicode = (69,101);
}
{
color = 3;
glyphname = F;
layers = (
{
layerId = m01;
shapes = (
{
closed = 1;
nodes = (
(15,0,l),
(415,0,l),
(414,251,l),
(514,251,l),
(515,350,l),
(615,350,l),
(615,600,l),
(15,600,l)
);
}
);
width = 630;
},
{
layerId = m002;
shapes = (
{
closed = 1;
nodes = (
(5,0,l),
(605,0,l),
(605,296,l),
(605,296,l),
(605,398,l),
(605,398,l),
(605,600,l),
(5,600,l)
);
}
);
width = 610;
}
);
metricLeft = "=O";
metricRight = "=O";
unicode = (70,102);
}
{
color = 1;
glyphname = G;
layers = (
{
layerId = m01;
shapes = (
{
closed = 1;
nodes = (
(15,100,l),
(110,100,l),
(110,0,l),
(615,0,l),
(615,300,l),
(465,300,l),
(465,235,l),
(415,235,l),
(415,300,l),
(415,350,l),
(615,350,l),
(615,600,l),
(110,600,l),
(110,500,l),
(15,500,l)
);
}
);
width = 630;
},
{
layerId = m002;
shapes = (
{
closed = 1;
nodes = (
(5,100,l),
(5,100,l),
(5,0,l),
(605,0,l),
(605,300,l),
(605,300,l),
(605,300,l),
(605,300,l),
(605,300,l),
(605,350,l),
(605,350,l),
(605,600,l),
(5,600,l),
(5,500,l),
(5,500,l)
);
}
);
width = 610;
},
{
associatedMasterId = m01;
attr = {
coordinates = (
850
);
};
layerId = "6AE50700-F197-4D5D-B172-8CFC55665CB3";
name = "9. Jun 23, 13:37";
shapes = (
{
closed = 1;
nodes = (
(10,100,l),
(61,100,l),
(61,0,l),
(610,0,l),
(610,300,l),
(560,300,l),
(560,235,l),
(510,235,l),
(510,300,l),
(510,350,l),
(610,350,l),
(610,600,l),
(61,600,l),
(61,500,l),
(10,500,l)
);
}
);
width = 620;
}
);
metricLeft = "=O";
metricRight = "=O";
unicode = (71,103);
}
{
color = 4;
glyphname = H;
layers = (
{
layerId = m01;
shapes = (
{
closed = 1;
nodes = (
(25,0,l),
(307,0,l),
(307,141,l),
(357,141,l),
(357,0,l),
(625,0,l),
(625,600,l),
(353,599,l),
(353,494,l),
(303,494,l),
(303,600,l),
(25,600,l)
);
}
);
userData = {
com.hugojourdan.ColorFlow = {
"0" = 0;
"1" = 0;
"10" = 0;
"11" = 0;
"2" = 0;
"3" = 0;
"4" = 0;
"5" = 0;
"6" = 0;
"7" = 0;
"8" = 0;
"9" = 0;
};
};
width = 650;
},
{
layerId = m002;
shapes = (
{
closed = 1;
nodes = (
(25,0,l),
(291,0,l),
(291,0,l),
(374,0,l),
(374,0,l),
(625,0,l),
(625,600,l),
(374,599,l),
(374,599,l),
(284,600,l),
(284,600,l),
(25,600,l)
);
}
);
userData = {
com.hugojourdan.ColorFlow = {
"0" = 0;
"1" = 0;
"10" = 0;
"11" = 0;
"2" = 0;
"3" = 0;
"4" = 0;
"5" = 0;
"6" = 0;
"7" = 0;
"8" = 0;
"9" = 0;
};
};
width = 650;
}
);
metricLeft = "=O";
metricRight = "=O";
unicode = (72,104);
}
{
color = 4;
glyphname = I;
layers = (
{
layerId = m01;
shapes = (
{
closed = 1;
nodes = (
(15,0,l),
(415,0,l),
(415,600,l),
(15,600,l)
);
}
);
width = 430;
},
{
layerId = m002;
shapes = (
{
closed = 1;
nodes = (
(5,0,l),
(605,0,l),
(605,600,l),
(5,600,l)
);
}
);
width = 610;
}
);
metricLeft = "=O";
metricRight = "=O";
unicode = (73,105);
}
{
color = 4;
glyphname = J;
layers = (
{
layerId = m01;
shapes = (
{
closed = 1;
nodes = (
(110,100,l),
(15,100,l),
(15,0,l),
(615,0,l),
(615,600,l),
(110,600,l)
);
}
);
width = 630;
},
{
layerId = m002;
shapes = (
{
closed = 1;
nodes = (
(5,100,l),
(5,100,l),
(5,0,l),
(605,0,l),
(605,600,l),
(6,600,l)
);
}
);
width = 610;
}
);
metricLeft = "=O";
metricRight = "=O";
unicode = (74,106);
}
{
color = 4;
glyphname = K;
layers = (
{
layerId = m01;
shapes = (
{
closed = 1;
nodes = (
(25,0,l),
(267,0,l),
(267,99,l),
(317,99,l),
(317,0,l),
(625,0,l),
(625,193,l),
(507,193,l),
(507,261,l),
(447,261,l),
(447,325,l),
(507,325,l),
(507,387,l),
(625,387,l),
(625,600,l),
(322,601,l),
(322,491,l),
(272,491,l),
(272,601,l),
(25,600,l)
);
}
);
userData = {
com.hugojourdan.ColorFlow = {
"0" = 0;
"1" = 0;
"10" = 0;
"11" = 0;
"2" = 0;
"3" = 0;
"4" = 0;
"5" = 0;
"6" = 0;
"7" = 0;
"8" = 0;
"9" = 0;
};
};
width = 650;
},
{
layerId = m002;
shapes = (
{
closed = 1;
nodes = (
(25,0,l),
(267,0,l),
(267,0,l),
(317,0,l),
(317,0,l),
(625,0,l),
(625,193,l),
(625,193,l),
(625,261,l),
(625,261,l),
(625,325,l),
(625,325,l),
(625,387,l),
(625,387,l),
(625,600,l),
(322,601,l),
(322,601,l),
(272,601,l),
(272,601,l),
(25,600,l)
);
}
);
userData = {
com.hugojourdan.ColorFlow = {
"0" = 0;
"1" = 0;
"10" = 0;
"11" = 0;
"2" = 0;
"3" = 0;
"4" = 0;
"5" = 0;
"6" = 0;
"7" = 0;
"8" = 0;
"9" = 0;
};
};
width = 650;
}
);
metricLeft = "=O";
metricRight = "=O";
unicode = (75,107);
}
{
color = 4;
glyphname = L;
layers = (
{
layerId = m002;
shapes = (
{
closed = 1;
nodes = (
(5,0,l),
(605,0,l),
(605,100,l),
(605,100,l),
(605,600,l),
(5,600,l)
);
}
);
width = 610;
},
{
layerId = m01;
shapes = (
{
closed = 1;
nodes = (
(15,0,l),
(615,0,l),
(615,100,l),
(510,100,l),
(510,600,l),
(15,600,l)
);
}
);
width = 630;
}
);
metricLeft = "=O";
metricRight = "=O";
unicode = (76,108);
}
{
color = 3;
glyphname = M;
layers = (
{
layerId = m01;
shapes = (
{
closed = 1;
nodes = (
(15,0,l),
(225,0,l),
(225,100,l),
(416,100,l),
(416,0,l),
(615,0,l),
(615,600,l),
(415,600,l),
(415,475,l),
(340,475,l),
(340,395,l),
(290,395,l),
(290,475,l),
(215,475,l),
(215,600,l),
(15,600,l)
);
}
);
width = 630;
},
{
layerId = m002;
shapes = (
{
closed = 1;
nodes = (
(5,0,l),
(215,0,l),
(215,0,l),
(406,0,l),
(406,0,l),
(605,0,l),
(605,600,l),
(405,600,l),
(405,600,l),
(330,600,l),
(330,600,l),
(280,600,l),
(280,600,l),
(205,600,l),
(205,600,l),
(5,600,l)
);
}
);
width = 610;
}
);
metricLeft = "=O";
metricRight = "=O";
unicode = (77,109);
}
{
color = 3;
glyphname = N;
layers = (
{
layerId = m01;
shapes = (
{
closed = 1;
nodes = (
(25,0,l),
(259,1,l),
(259,200,l),
(309,199,l),
(308,99,l),
(408,99,l),
(408,0,l),
(625,0,l),
(625,600,l),
(403,600,l),
(403,395,l),
(353,395,l),
(353,495,l),
(253,495,l),
(253,600,l),
(25,600,l)
);
}
);
userData = {
com.hugojourdan.ColorFlow = {
"0" = 0;
"1" = 0;
"10" = 0;
"11" = 0;
"2" = 0;
"3" = 0;
"4" = 0;
"5" = 0;
"6" = 0;
"7" = 0;
"8" = 0;
"9" = 0;
};
};
width = 650;
},
{
layerId = m002;
shapes = (
{
closed = 1;
nodes = (
(25,0,l),
(259,1,l),
(259,1,l),
(309,-1,l),
(309,-1,l),
(408,0,l),
(408,0,l),
(625,0,l),
(625,600,l),
(403,600,l),
(403,600,l),
(353,600,l),
(353,600,l),
(253,600,l),
(253,600,l),
(25,600,l)
);
}
);
userData = {
com.hugojourdan.ColorFlow = {
"0" = 0;
"1" = 0;
"10" = 0;
"11" = 0;
"2" = 0;
"3" = 0;
"4" = 0;
"5" = 0;
"6" = 0;
"7" = 0;
"8" = 0;
"9" = 0;
};
};
width = 650;
}
);
metricLeft = "=O";
metricRight = "=O";
unicode = (78,110);
}
{
color = 4;
glyphname = O;
layers = (
{
layerId = m01;
shapes = (
{
closed = 1;
nodes = (
(15,0,l),
(615,0,l),
(615,600,l),
(15,600,l)
);
}
);
width = 630;
},
{
layerId = m002;
shapes = (
{
closed = 1;
nodes = (
(5,0,l),
(605,0,l),
(605,600,l),
(5,600,l)
);
}
);
width = 610;
}
);
unicode = (79,111);
}
{
color = 4;
glyphname = P;
layers = (
{
layerId = m01;
shapes = (
{
closed = 1;
nodes = (
(15,0,l),
(215,0,l),
(215,100,l),
(615,100,l),
(615,600,l),
(15,600,l)
);
}
);
width = 630;
},
{
layerId = m002;
shapes = (
{
closed = 1;
nodes = (
(5,0,l),
(605,0,l),
(605,100,l),
(605,100,l),
(605,600,l),
(5,600,l)
);
}
);
width = 610;
}
);
metricLeft = "=O";
metricRight = "=O";
unicode = (80,112);
}
{
color = 3;
glyphname = Q;
layers = (
{
layerId = m01;
shapes = (
{
closed = 1;
nodes = (
(394,0,l),
(394,220,l),
(455,220,l),
(455,0,l),
(615,0,l),
(615,154,l),
(394,154,l),
(394,220,l),
(615,220,l),
(615,600,l),
(15,600,l),
(15,0,l)
);
}
);
width = 630;
},
{
layerId = m002;
shapes = (
{
closed = 1;
nodes = (
(5,0,l),
(384,0,l),
(384,0,l),
(445,0,l),
(445,0,l),
(605,0,l),
(605,154,l),
(605,154,l),
(605,220,l),
(605,220,l),
(605,600,l),
(5,600,l)
);
}
);
width = 610;
}
);
metricLeft = "=O";
metricRight = "=O";
unicode = (81,113);
}
{
glyphname = R;
layers = (
{
layerId = m01;
shapes = (
{
closed = 1;
nodes = (
(15,0,l),
(248,1,l),
(248,151,l),
(298,151,l),
(298,1,l),
(603,0,l),
(603,100,l),
(298,100,l),
(298,151,l),
(603,150,l),
(605,600,l),
(15,600,l)
);
}
);
width = 620;
},
{
layerId = m002;
shapes = (
{
closed = 1;
nodes = (
(5,0,l),
(238,1,l),
(238,1,l),
(288,1,l),
(288,1,l),
(593,0,l),
(593,101,l),
(593,101,l),
(593,151,l),
(593,151,l),
(595,600,l),
(5,600,l)
);
}
);
width = 600;
},
{
associatedMasterId = m01;
attr = {
coordinates = (
810
);
};
layerId = "D07F49B4-1127-4863-B274-5736980EEA5F";
name = "9. Jun 23, 13:16";
shapes = (
{
closed = 1;
nodes = (
(14,0,l),
(247,1,l),
(247,151,l),
(297,151,l),
(297,1,l),
(602,0,l),
(602,100,l),
(348,100,l),
(348,151,l),
(602,150,l),
(604,600,l),
(14,600,l)
);
}
);
width = 618;
}
);
metricLeft = "=O";
metricRight = "=O";
unicode = (82,114);
}
{
color = 4;
glyphname = S;
layers = (
{
layerId = m01;
shapes = (
{
closed = 1;
nodes = (
(25,209,l),
(238,209,l),
(238,159,l),
(25,159,l),
(25,0,l),
(515,0,l),
(515,100,l),
(625,100,l),
(625,373,l),
(444,373,l),
(444,423,l),
(625,423,l),
(625,600,l),
(115,600,l),
(115,500,l),
(25,500,l)
);
}
);
userData = {
com.hugojourdan.ColorFlow = {
"0" = 0;
"1" = 0;
"10" = 0;
"11" = 0;
"2" = 0;
"3" = 0;
"4" = 0;
"5" = 0;
"6" = 0;
"7" = 0;
"8" = 0;
"9" = 0;
};
};
width = 650;
},
{
layerId = m002;
shapes = (
{
closed = 1;
nodes = (
(25,209,l),
(25,209,l),
(25,159,l),
(25,159,l),
(25,0,l),
(625,0,l),
(625,100,l),
(625,100,l),
(625,373,l),
(625,373,l),
(625,423,l),
(625,423,l),
(625,600,l),
(25,600,l),
(25,500,l),
(25,500,l)
);
}
);
userData = {
com.hugojourdan.ColorFlow = {
"0" = 0;
"1" = 0;
"10" = 0;
"11" = 0;
"2" = 0;
"3" = 0;
"4" = 0;
"5" = 0;
"6" = 0;
"7" = 0;
"8" = 0;
"9" = 0;
};
};
width = 650;
}
);
metricLeft = "=O";
metricRight = "=O";
unicode = (83,115);
}
{
color = 4;
glyphname = T;
layers = (
{
layerId = m01;
shapes = (
{
closed = 1;
nodes = (
(525,500,l),
(625,500,l),
(625,600,l),
(25,600,l),
(25,500,l),
(125,500,l),
(125,0,l),
(525,0,l)
);
}
);
userData = {
com.hugojourdan.ColorFlow = {
"0" = 0;
"1" = 0;
"10" = 0;
"11" = 0;
"2" = 0;
"3" = 0;
"4" = 0;
"5" = 0;
"6" = 0;
"7" = 0;
"8" = 0;
"9" = 0;
};
};
width = 650;
},
{
layerId = m002;
shapes = (
{
closed = 1;
nodes = (
(625,500,l),
(625,500,l),
(625,600,l),
(25,600,l),
(25,500,l),
(25,500,l),
(25,0,l),
(625,0,l)
);
}
);
userData = {
com.hugojourdan.ColorFlow = {
"0" = 0;
"1" = 0;
"10" = 0;
"11" = 0;
"2" = 0;
"3" = 0;
"4" = 0;
"5" = 0;
"6" = 0;
"7" = 0;
"8" = 0;
"9" = 0;
};
};
width = 650;
}
);
metricLeft = "=O";
metricRight = "=O";
unicode = (84,116);
}
{
color = 4;
glyphname = U;
layers = (
{
layerId = m01;
shapes = (
{
closed = 1;
nodes = (
(15,0,l),
(615,0,l),
(615,600,l),
(340,600,l),
(341,295,l),
(291,295,l),
(290,600,l),
(15,600,l)
);
}
);
width = 630;
},
{
layerId = m002;
shapes = (
{
closed = 1;
nodes = (
(5,0,l),
(605,0,l),
(605,600,l),
(356,600,l),
(356,600,l),
(256,600,l),
(256,600,l),
(5,600,l)
);
}
);
width = 610;
}
);
metricLeft = "=O";
metricRight = "=O";
unicode = (85,117);
}
{
color = 4;
glyphname = V;
layers = (
{
layerId = m01;
shapes = (
{
closed = 1;
nodes = (
(25,100,l),
(215,100,l),
(215,0,l),
(215,0,l),
(435,0,l),
(435,0,l),
(435,100,l),
(625,100,l),
(625,600,l),
(351,600,l),
(351,235,l),
(301,235,l),
(301,600,l),
(25,600,l)
);
}
);
userData = {
com.hugojourdan.ColorFlow = {
"0" = 0;
"1" = 0;
"10" = 0;
"11" = 0;
"2" = 0;
"3" = 0;
"4" = 0;
"5" = 0;
"6" = 0;
"7" = 0;
"8" = 0;
"9" = 0;
};
};
width = 650;
},
{
layerId = m002;
shapes = (
{
closed = 1;
nodes = (
(25,143,l),
(25,143,l),
(25,0,l),
(180,0,l),
(483,0,l),
(625,0,l),
(625,143,l),
(625,143,l),
(625,600,l),
(376,600,l),
(376,600,l),
(276,600,l),
(276,600,l),
(25,600,l)
);
}
);
userData = {
com.hugojourdan.ColorFlow = {
"0" = 0;
"1" = 0;
"10" = 0;
"11" = 0;
"2" = 0;
"3" = 0;
"4" = 0;
"5" = 0;
"6" = 0;
"7" = 0;
"8" = 0;
"9" = 0;
};
};
width = 650;
}
);
metricLeft = "=O";
metricRight = "=O";
unicode = (86,118);
}
{
color = 4;
glyphname = W;
layers = (
{
layerId = m01;
shapes = (
{
closed = 1;
nodes = (
(25,100,l),
(185,100,l),
(185,0,l),
(185,0,l),
(475,0,l),
(475,0,l),
(475,100,l),
(625,100,l),
(625,600,l),
(440,600,l),
(440,295,l),
(390,295,l),
(390,600,l),
(259,600,l),
(259,295,l),
(209,295,l),
(209,600,l),
(25,600,l)
);
}
);
userData = {
com.hugojourdan.ColorFlow = {
"0" = 0;
"1" = 0;
"10" = 0;
"11" = 0;
"2" = 0;
"3" = 0;
"4" = 0;
"5" = 0;
"6" = 0;
"7" = 0;
"8" = 0;
"9" = 0;
};
};
width = 650;
},
{
layerId = m002;
shapes = (
{
closed = 1;
nodes = (
(25,100,l),
(25,100,l),
(25,0,l),
(25,0,l),
(625,0,l),
(625,0,l),
(625,100,l),
(625,100,l),
(625,600,l),
(440,600,l),
(440,600,l),
(390,600,l),
(390,600,l),
(259,600,l),
(259,600,l),
(209,600,l),
(209,600,l),
(25,600,l)
);
}
);
userData = {
com.hugojourdan.ColorFlow = {
"0" = 0;
"1" = 0;
"10" = 0;
"11" = 0;
"2" = 0;
"3" = 0;
"4" = 0;
"5" = 0;
"6" = 0;
"7" = 0;
"8" = 0;
"9" = 0;
};
};
width = 650;
}
);
metricLeft = "=O";
metricRight = "=O";
unicode = (87,119);
}
{
color = 4;
glyphname = X;
layers = (
{
layerId = m01;
shapes = (
{
closed = 1;
nodes = (
(25,384,l),
(125,384,l),
(125,184,l),
(25,184,l),
(25,0,l),
(229,0,l),
(229,50,l),
(429,50,l),
(429,0,l),
(625,0,l),
(625,185,l),
(525,185,l),
(525,384,l),
(625,384,l),
(625,600,l),
(431,600,l),
(431,550,l),
(231,550,l),
(231,600,l),
(25,600,l)
);
}
);
userData = {
com.hugojourdan.ColorFlow = {
"0" = 0;
"1" = 0;
"10" = 0;
"11" = 0;
"2" = 0;
"3" = 0;
"4" = 0;
"5" = 0;
"6" = 0;
"7" = 0;
"8" = 0;
"9" = 0;
};
};
width = 650;
},
{
layerId = m002;
shapes = (
{
closed = 1;
nodes = (
(25,384,l),
(25,384,l),
(25,184,l),
(25,184,l),
(25,0,l),
(229,0,l),
(229,0,l),
(429,0,l),
(429,0,l),
(625,0,l),
(625,185,l),
(625,185,l),
(625,384,l),
(625,384,l),
(625,600,l),
(431,600,l),
(431,600,l),
(231,600,l),
(231,600,l),
(25,600,l)
);
}
);
userData = {
com.hugojourdan.ColorFlow = {
"0" = 0;
"1" = 0;
"10" = 0;
"11" = 0;
"2" = 0;
"3" = 0;
"4" = 0;
"5" = 0;
"6" = 0;
"7" = 0;
"8" = 0;
"9" = 0;
};
};
width = 650;
}
);
metricLeft = "=O";
metricRight = "=O";
unicode = (88,120);
}
{
color = 3;
glyphname = Y;
layers = (
{
layerId = m01;
shapes = (
{
closed = 1;
nodes = (
(25,250,l),
(125,250,l),
(125,0,l),
(125,0,l),
(525,0,l),
(525,0,l),
(525,250,l),
(625,250,l),
(625,600,l),
(351,600,l),
(351,430,l),
(301,430,l),
(301,600,l),
(25,600,l)
);
}
);
userData = {
com.hugojourdan.ColorFlow = {
"0" = 0;
"1" = 0;
"10" = 0;
"11" = 0;
"2" = 0;
"3" = 0;
"4" = 0;
"5" = 0;
"6" = 0;
"7" = 0;
"8" = 0;
"9" = 0;
};
};
width = 650;
},
{
layerId = m002;
shapes = (
{
closed = 1;
nodes = (
(25,143,l),
(25,143,l),
(25,0,l),
(180,0,l),
(483,0,l),
(625,0,l),
(625,143,l),
(625,143,l),
(625,600,l),
(376,600,l),
(376,600,l),
(276,600,l),
(276,600,l),
(25,600,l)
);
}
);
userData = {
com.hugojourdan.ColorFlow = {
"0" = 0;
"1" = 0;
"10" = 0;
"11" = 0;
"2" = 0;
"3" = 0;
"4" = 0;
"5" = 0;
"6" = 0;
"7" = 0;
"8" = 0;
"9" = 0;
};
};
width = 650;
}
);
metricLeft = "=O";
metricRight = "=O";
unicode = (89,121);
}
{
glyphname = Z;
layers = (
{
layerId = m01;
shapes = (
{
closed = 1;
nodes = (
(15,600,l),
(15,386,l),
(215,386,l),
(215,336,l),
(114,336,l),
(114,237,l),
(15,237,l),
(15,0,l),
(615,0,l),
(615,182,l),
(410,182,l),
(410,232,l),
(510,232,l),
(510,332,l),
(615,332,l),
(615,600,l)
);
}
);
width = 600;
},
{
layerId = m002;
shapes = (
{
closed = 1;
nodes = (
(15,600,l),
(16,386,l),
(16,386,l),
(15,336,l),
(15,336,l),
(15,237,l),
(15,237,l),
(15,0,l),
(615,0,l),
(615,182,l),
(615,182,l),
(615,232,l),
(615,232,l),
(615,332,l),
(615,332,l),
(615,600,l)
);
}
);
width = 600;
}
);
unicode = (90,122);
}
{
color = 4;
export = 0;
glyphname = R.old;
layers = (
{
layerId = m01;
shapes = (
{
closed = 1;
nodes = (
(25,0,l),
(220,0,l),
(220,200,l),
(615,200,l),
(615,600,l),
(25,600,l)
);
},
{
closed = 1;
nodes = (
(463,0,l),
(613,0,l),
(613,150,l),
(463,150,l)
);
}
);
userData = {
com.hugojourdan.ColorFlow = {
"0" = 0;
"1" = 0;
"10" = 0;
"11" = 0;
"2" = 0;
"3" = 0;
"4" = 0;
"5" = 0;
"6" = 0;
"7" = 0;
"8" = 0;
"9" = 0;
};
};
width = 640;
},
{
layerId = m002;
shapes = (
{
closed = 1;
nodes = (
(25,0,l),
(220,0,l),
(220,150,l),
(613,150,l),
(615,600,l),
(25,600,l)
);
},
{
closed = 1;
nodes = (
(220,0,l),
(613,0,l),
(613,150,l),
(220,150,l)
);
}
);
userData = {
com.hugojourdan.ColorFlow = {
"0" = 0;
"1" = 0;
"10" = 0;
"11" = 0;
"2" = 0;
"3" = 0;
"4" = 0;
"5" = 0;
"6" = 0;
"7" = 0;
"8" = 0;
"9" = 0;
};
};
width = 640;
},
{
associatedMasterId = m01;
attr = {
coordinates = (
850
);
};
layerId = "E4199F7E-9388-40DE-8489-A545F9661150";
name = "9. Jun 23, 12:28";
shapes = (
{
closed = 1;
nodes = (
(25,0,l),
(220,0,l),
(220,200,l),
(615,200,l),
(615,600,l),
(25,600,l)
);
},
{
closed = 1;
nodes = (
(270,0,l),
(613,0,l),
(613,150,l),
(270,150,l)
);
}
);
width = 640;
}
);
metricLeft = "=O";
metricRight = "=O";
}
